<?xml version="1.0" encoding="UTF-8"?>
<svg xmlns="http://www.w3.org/2000/svg" xmlns:xlink="http://www.w3.org/1999/xlink" width="142px" height="42px" viewBox="0 0 142 42" version="1.1">
<g id="surface1">
<path style=" stroke:none;fill-rule:nonzero;fill:rgb(100%,100%,100%);fill-opacity:1;" d="M 6.265625 18.886719 L 8.398438 17.828125 L 11.773438 12.753906 L 12.804688 12.332031 L 13.90625 17.476562 L 12.460938 17.6875 L 11.359375 15.574219 L 10.535156 18.886719 L 14.183594 18.886719 L 17.96875 19.871094 L 19.484375 18.886719 L 22.03125 21.5625 L 23.132812 16.632812 L 24.921875 18.464844 L 26.023438 16.914062 L 27.816406 16.417969 L 30.429688 13.953125 L 30.84375 12.753906 L 32.976562 13.105469 L 33.875 14.304688 L 32.289062 17.6875 L 36.214844 15.644531 L 36.214844 14.65625 L 37.730469 14.304688 L 39.382812 15.996094 L 41.035156 13.953125 L 41.035156 12.542969 L 43.71875 10.640625 L 44.820312 9.019531 L 46.542969 9.019531 L 49.570312 2.75 L 52.1875 0 L 53.152344 1.550781 L 51.636719 3.523438 L 52.1875 4.792969 L 53.632812 5.074219 L 54.804688 10.289062 L 54.804688 14.65625 L 56.867188 17.546875 L 57.902344 21.5625 L 54.320312 19.238281 L 52.738281 12.542969 L 51.773438 12.753906 L 51.636719 17.265625 L 49.019531 21.5625 L 48.261719 28.117188 L 50.054688 28.539062 L 50.808594 27.625 L 52.53125 29.597656 L 53.839844 35.515625 L 53.703125 39.320312 L 52.050781 39.320312 L 51.429688 33.964844 L 50.257812 35.585938 L 47.710938 35.023438 L 45.648438 33.261719 L 43.304688 34.105469 L 43.445312 37.914062 L 41.585938 38.40625 L 38.832031 40.519531 L 35.527344 40.097656 L 34.21875 39.320312 L 32.152344 39.675781 L 32.839844 40.519531 L 31.1875 41.507812 L 29.878906 40.871094 L 27.402344 42 L 23.613281 40.097656 L 22.167969 36.714844 L 20.929688 36.855469 L 19.484375 35.65625 L 19.414062 34.742188 L 14.800781 34.25 L 14.046875 36.785156 L 11.152344 35.445312 L 9.707031 32.980469 L 6.609375 32.980469 L 6.265625 36.925781 L 4.476562 37.488281 L 3.582031 41.082031 L 2.890625 40.449219 L 0 32.910156 L 3.441406 31.21875 L 2.890625 27.90625 L 2.339844 24.523438 L 3.855469 22.339844 L 3.375 21 L 5.4375 18.746094 Z M 52.050781 27.203125 L 55.214844 31.992188 L 56.25 31.570312 L 54.941406 29.597656 L 52.050781 26.496094 Z M 19.691406 17.476562 L 19.691406 16.066406 L 22.101562 14.304688 L 24.164062 13.25 L 21.757812 13.25 L 19.621094 14.515625 L 18.3125 15.714844 L 18.3125 17.476562 Z M 19.691406 17.476562 "/>
<path style=" stroke:none;fill-rule:nonzero;fill:rgb(100%,100%,100%);fill-opacity:1;" d="M 72.476562 33.117188 L 76.289062 33.117188 L 76.289062 28.929688 L 78.398438 28.929688 C 81.601562 28.929688 83.746094 27.039062 83.746094 24 C 83.746094 21 81.65625 19.019531 78.535156 19.019531 L 72.476562 19.019531 Z M 76.289062 25.957031 L 76.289062 22.074219 L 77.632812 22.074219 C 78.96875 22.074219 79.769531 22.789062 79.769531 24 C 79.769531 25.207031 78.96875 25.957031 77.632812 25.957031 Z M 76.289062 25.957031 "/>
<path style=" stroke:none;fill-rule:nonzero;fill:rgb(100%,100%,100%);fill-opacity:1;" d="M 90.042969 33.308594 C 93.46875 33.308594 95.5 31.105469 95.5 27.855469 C 95.5 24.609375 93.46875 22.40625 90.042969 22.40625 C 86.617188 22.40625 84.589844 24.609375 84.589844 27.855469 C 84.589844 31.105469 86.617188 33.308594 90.042969 33.308594 Z M 90.070312 30.5 C 89.058594 30.5 88.453125 29.488281 88.453125 27.828125 C 88.453125 26.171875 89.058594 25.15625 90.070312 25.15625 C 91.03125 25.15625 91.632812 26.171875 91.632812 27.828125 C 91.632812 29.488281 91.03125 30.5 90.070312 30.5 Z M 90.070312 30.5 "/>
<path style=" stroke:none;fill-rule:nonzero;fill:rgb(100%,100%,100%);fill-opacity:1;" d="M 102.105469 33.308594 C 105.226562 33.308594 107.136719 31.511719 107.179688 28.710938 L 103.667969 28.710938 C 103.585938 29.820312 102.992188 30.417969 102.160156 30.417969 C 101.167969 30.417969 100.515625 29.5625 100.515625 27.828125 C 100.515625 26.09375 101.167969 25.242188 102.160156 25.242188 C 102.996094 25.242188 103.566406 25.839844 103.667969 26.949219 L 107.179688 26.949219 C 107.160156 24.195312 105.203125 22.40625 102.105469 22.40625 C 98.679688 22.40625 96.652344 24.609375 96.652344 27.855469 C 96.652344 31.105469 98.679688 33.308594 102.105469 33.308594 Z M 102.105469 33.308594 "/>
<path style=" stroke:none;fill-rule:nonzero;fill:rgb(100%,100%,100%);fill-opacity:1;" d="M 113.8125 33.308594 C 116.929688 33.308594 118.84375 31.511719 118.882812 28.710938 L 115.375 28.710938 C 115.292969 29.820312 114.695312 30.417969 113.867188 30.417969 C 112.875 30.417969 112.222656 29.5625 112.222656 27.828125 C 112.222656 26.09375 112.875 25.242188 113.867188 25.242188 C 114.703125 25.242188 115.273438 25.839844 115.375 26.949219 L 118.882812 26.949219 C 118.863281 24.195312 116.910156 22.40625 113.8125 22.40625 C 110.386719 22.40625 108.355469 24.609375 108.355469 27.855469 C 108.355469 31.105469 110.386719 33.308594 113.8125 33.308594 Z M 113.8125 33.308594 "/>
<path style=" stroke:none;fill-rule:nonzero;fill:rgb(100%,100%,100%);fill-opacity:1;" d="M 124.007812 28.269531 L 124.007812 22.542969 L 120.445312 22.542969 L 120.445312 33.117188 L 124.007812 33.117188 L 126.941406 27.359375 L 126.941406 33.117188 L 130.507812 33.117188 L 130.507812 22.542969 L 126.941406 22.542969 Z M 124.007812 28.269531 "/>
<path style=" stroke:none;fill-rule:nonzero;fill:rgb(100%,100%,100%);fill-opacity:1;" d="M 138.492188 33.117188 L 142 33.117188 L 142 22.542969 L 137.066406 22.542969 C 134.027344 22.542969 132.109375 24.085938 132.128906 26.230469 C 132.117188 27.4375 132.835938 28.433594 134.097656 29.027344 L 132.019531 33.117188 L 135.503906 33.117188 L 137.277344 29.617188 L 138.492188 29.617188 Z M 138.492188 27.332031 L 137.148438 27.332031 C 136.140625 27.332031 135.671875 26.835938 135.695312 26.371094 C 135.671875 25.929688 136.113281 25.378906 137.066406 25.378906 L 138.492188 25.378906 Z M 138.492188 27.332031 "/>
</g>
</svg>
